<svg version="1.0" xmlns="http://www.w3.org/2000/svg"
 width="1280.000000pt" height="1178.000000pt" viewBox="0 0 1280.000000 1178.000000"
 preserveAspectRatio="xMidYMid meet">
<defs>
  <linearGradient id="gradient" x1="0%" y1="0%" x2="100%" y2="0%">
    <stop offset="0%" stop-color="rgba(227,87,220,1)" />
    <stop offset="100%" stop-color="rgba(129,94,248,1)" />
  </linearGradient>
</defs>
  <g transform="rotate(0,0)  translate(0.000000,1178.000000) scale(1.000000,-1.000000)"
fill="url(#gradient)" stroke="none">
  <path d="M51.8 4.8C34.3 7.4 20 9.7 20 10.1c0 .5 385.3 254.8 394.4 260.3l3.1 1.8-2.5-2.3c-1.4-1.3-55.9-48.1-121-104L175.5 64.3 131 32.2C106.5 14.5 85.8.1 85 .1c-.8.1-15.8 2.2-33.2 4.7m1097.1 27.4-44.5 32.3-119 101.9c-114.9 98.5-124.6 106.9-121.4 105 .8-.4 81.4-53.4 179-117.7 97.6-64.2 186.6-122.8 197.7-130 11.1-7.3 20.2-13.4 20.2-13.7.1-.3-14-2.5-31.2-4.8-17.1-2.4-32.3-4.6-33.7-4.8-2-.3-11.4 6-47.1 31.8m-999.4 4.4 40 26.8 34.5 2.8c19 1.5 34.8 2.6 35.2 2.5.3-.1-6.8-8.3-15.8-18.2l-16.4-18-11.2-2.2c-6.2-1.2-31.3-6-55.8-10.7s-45.8-8.9-47.5-9.2c-1.8-.3 13.2 10.3 37 26.2m960.8-15.2-57.1 11.1-16.5 18c-9 9.9-16.2 18.1-15.8 18.2.3.1 16.1-1 35.1-2.5l34.5-2.8 40-26.7c22-14.7 39.3-26.7 38.5-26.6s-27.2 5.1-58.7 11.3M.6 28.2c.3 3.5 1.8 21.1 3.2 39.2l2.7 32.9 16.5 5.3c9.1 2.9 42.1 13.4 73.5 23.4s77.2 24.7 101.9 32.6c24.8 7.9 45.1 14.2 45.3 14.1.2-.3-236.5-149.9-241.4-152.5l-2.4-1.3zm1157.2 70.5c-66.9 42.2-121.6 76.9-121.4 77 .2.2 35.9-11.1 219.1-69.6l18-5.8 3.2-37.4c1.8-20.6 3.1-38.2 3-39.2-.1-1.3-28.8 16.3-121.9 75M233.5 85.8c9.9 10 193.8 180.2 194.2 179.8s-23.8-84.6-31.3-109.1l-2.4-8-49.3-30.6-49.2-30.7-29.5-2.7c-16.2-1.4-31.3-2.9-33.5-3.2l-4-.5zm781.7-1.4L984 87.5 935.1 118l-49 30.5-2 6.5c-6.4 20.7-32.1 110.3-31.8 110.7.4.3 182-167.7 193.7-179.3 4.9-4.9 5.2-5.4 3-5.3-1.4.1-16.6 1.6-33.8 3.3M56.3 134.3c.3.6 11.1 18.5 24 39.7l23.5 38.4 109.3 11.2c60.2 6.2 111.9 11.5 114.9 11.8 6.6.7 14.9 3.8-141-53.9-140.7-52.1-131.3-48.7-130.7-47.2m1095.2 25.6c-39.6 14.7-101.8 37.7-138.2 51.1-36.4 13.5-66 24.6-65.9 24.7s9.2-.7 20.1-1.8c11-1.2 62.5-6.5 114.4-11.8l94.5-9.7 23.9-39.2c13.2-21.6 23.8-39.4 23.6-39.6s-32.8 11.6-72.4 26.3M853 178.4l-21.5 18.3-82 151.9C649.1 534.5 656.9 520 657.3 520c.3 0 41-53.9 90.7-119.8l90.2-119.7 14.9-49c17.7-58 21.8-71.5 21.6-71.5-.1 0-9.9 8.3-21.7 18.4m-447-16.8c0 .7 24 80.2 32.6 107.9l3.4 11 88.2 117.2c48.6 64.4 89.3 118.4 90.6 120 3.2 3.9 6.6 10.2-88.4-165.6l-83.9-155.5-19.4-16.5c-20.7-17.8-23.1-19.6-23.1-18.5m59.3 38.6c1.1 2.9 161.9 303.3 162.9 304.3.7.6.7.2 0-1-.6-1.2-13.5-30.4-28.7-65-38.4-87.3-73.2-165.7-79.9-180-5.4-11.4-6.3-12.6-16.4-22.8-16.3-16.5-38.6-37.4-37.9-35.5m325.3 22-24 23.3-5.2 11c-11.3 24-109.6 246.7-109.1 247.2.2.1 24.8-45.5 54.7-101.5 30-55.9 66.7-124.5 81.6-152.5 14.9-27.9 26.9-50.7 26.5-50.7-.3 0-11.4 10.5-24.5 23.2m-711.3 12c.3 1.3 2.5 12.6 4.8 25.3 2.3 12.6 4.4 23.2 4.6 23.4.4.6 7.3-.5 59.1-9 23.2-3.8 61.4-10.1 85-13.9 23.5-3.9 46-7.5 49.9-8.2 4-.6 7.1-1.3 6.9-1.5S81.8 232 79.2 232c-.2 0-.2 1 .1 2.2m1084.7.8c-17.3 1.6-47.9 4.2-68 5.9-20.1 1.8-52 4.5-70.9 6.1-18.9 1.7-34.6 3.1-34.7 3.3-.2.2 13.9 2.6 31.4 5.5 162.8 26.7 165.8 27.2 168 27.2 1.6 0 2.3-2.7 6.1-22.8 2.3-12.5 4.5-23.9 4.8-25.5.7-3.3 4.5-3.3-36.7.3m-809.9 9.7c.6 1.4 262.2 327.4 262.5 327 .8-.8 4.4-31 3.8-32-3.5-5.8-186.2-249.1-188.2-250.5s-55-32.1-77.6-45c-.5-.3-.7-.1-.5.5m532.4 21.9c-21.5 12.4-40 23.5-41.1 24.7-1.9 1.9-183.7 245.1-185.7 248.3-.3.6.3 8.2 1.5 16.8 2 14.9 2.2 15.6 3.8 13.9 3.9-4 261.1-325.5 260.8-325.8-.2-.2-17.9 9.8-39.3 22.1M322 254.5c-7.4 1.3-31.5 5.3-53.5 8.9-102.4 16.8-155.9 25.7-156.1 25.9-.3.4-15.1 99.2-14.9 99.5.2.2 234.2-131.3 240-134.9 3-1.8 3-1.9.5-1.8-1.4.1-8.6 1.2-16 2.4m618.1-2.1c.8.8 242.2 136.6 242.5 136.3.2-.2-14.7-99.1-15-99.4-.2-.3-64.4-10.9-143.3-23.8-90.8-14.9-85.2-14-84.2-13.1M348 263.1c-2.5 1.6-18.8 11.5-36.3 22.1-29.7 17.9-31.7 19.3-30 20.8 1 .8 14.4 12.3 29.8 25.5 47.9 41.2 294.1 250.9 300 255.5 2.3 1.8 13.5 16-134.5-170.9-67.9-85.8-123.7-156-124-156s-2.5 1.3-5 3m465 140.5c-62.4 78.9-120.9 152.8-129.9 164.2-9.1 11.4-15.5 20-14.4 19.2 1.2-.8 14-11.6 28.5-24 14.4-12.4 70.4-60 124.3-105.9 163.6-139.3 178.8-152.5 177.3-153.4-12.9-7.9-72-43.7-72.1-43.6-.1 0-51.3 64.6-113.7 143.5m-543-83.2c0 .3 29 40.8 64.4 89.9l64.4 89.3 20.4 9.9c11.2 5.4 60.3 29.6 109.2 53.7s89.1 43.7 89.2 43.5c.1-.1-8.4-7-18.9-15.3-14.8-11.5-297.9-245.5-323.4-267.2-2.9-2.4-5.3-4.2-5.3-3.8m586.5 126.7c-84.1 69.8-162.3 134.3-173.6 143.2-11.4 8.9-20.6 16.3-20.5 16.4.2.2 49.5-23.9 109.6-53.5l109.4-53.8 24.5-34c13.5-18.6 42.6-59 64.7-89.7 22.2-30.6 40-55.7 39.6-55.6-.4 0-69.5 57.2-153.7 127m-663.2-84.9c-26 10.5-47.3 19.3-47.3 19.7 0 .3 22.2 11.7 49.3 25.4 27 13.6 77.3 38.8 111.7 56.1s62.6 31.3 62.8 31.2c.2-.3-123.5-145.6-127.1-149.3l-2.2-2.2zm781.3 56.5c-35.5 41.6-64.4 75.9-64.2 76.1.3.2 10-4.6 21.8-10.6 15.9-8.2 146.4-74 198.2-99.9l4.9-2.5-43.9-17.7c-24.1-9.7-45.8-18.4-48.1-19.4l-4.1-1.6zm-868.1 24.5c.4 20 .8 36.4.9 36.5.2.2 25.7 2.4 128.6 11.3 25 2.2 61.6 5.3 81.3 7s36.3 3 36.8 2.8-4.2-2.2-10.4-4.5c-6.1-2.3-26.3-9.9-44.7-16.8-34.6-13.1-101.9-38.5-159.4-60.1-18.1-6.8-33.1-12.4-33.4-12.4-.2 0-.1 16.3.3 36.2m1041-26.6c-27.8 10.6-107 40.5-176.7 66.7-25.1 9.5-45.2 17.3-44.8 17.5.5.2 11.6-.6 24.7-1.7 13.1-1.2 44.5-3.9 69.8-6.1 128.8-11.1 151.9-13.1 152.2-13.3.8-.8 1.5-72.7.7-72.6-.5 0-12.1 4.3-25.9 9.5M76 496.5c0 .5 24.2 67.9 24.5 68.3.2.2 19.8-3.9 108.5-22.8 17.9-3.8 54.7-11.7 81.9-17.5s49.7-10.7 49.9-11c.3-.3-.5-.5-1.8-.5-2.6 0-247.3-15.6-256.7-16.4-3.5-.3-6.3-.3-6.3-.1m1121.5.1c-1.6.2-10.9.8-20.5 1.4s-24.2 1.5-32.5 2.1C1104.6 502.7 943.1 513 941 513c-1.3 0-2.1.2-1.8.5.4.4 42.3 9.5 103.8 22.5 10.2 2.1 45 9.6 77.4 16.5s59 12.4 59.2 12.3c.3-.4 23.5-64.6 24.2-67.1.3-1.2-.1-1.7-1.4-1.5-1.1 0-3.2.2-4.9.4m-830.7 22.6C351.1 536.5 336 554.1 336 555c0 .6.4 1 .8 1s17.4 3.8 37.7 8.4c77.3 17.7 140 32 167.5 38.2 52.5 12 63.3 14.4 63.6 14.1.5-.5-228.4-106.7-230-106.7-.2 0-4.1 4.2-8.8 9.2m514.2 1.3c-12.4 5.6-55.1 25.5-95 44s-81.4 37.8-92.2 42.8-19.6 9.3-19.4 9.4c.3.3 26.2-5.5 107.9-24.1 63.4-14.5 86.8-19.9 123.2-28.1 20.9-4.7 38.4-8.7 38.9-8.9 1.3-.3-38.7-45.7-40.3-45.5-.3 0-10.7 4.7-23.1 10.4M317.5 533c-6.6 2.1-33.1 10.2-59 18.1-25.8 7.8-47.4 14.5-47.8 14.9-.5.5 13 5.3 30 10.8 34.8 11.4 45.3 14.6 45.7 14.1.5-.6 37.8-50.9 42-56.7 2.1-2.9 3.2-5.2 2.4-5.1-.7 0-6.7 1.8-13.3 3.9m631.2-2.8c.6.7 10.8 14.6 22.8 30.8s21.9 29.7 22.1 29.9c.5.6 4.9-.7 43.2-13.2 18.8-6.1 33.7-11.4 33-11.8-.7-.3-15-4.8-31.8-9.9-16.8-5-43.6-13.2-59.7-18.1s-29.5-8.9-29.9-8.9c-.3 0-.2.6.3 1.2m-645 64c-17.6 11.7-31.5 21.3-31 21.5.4.1 16.6.9 35.8 1.8 19.3.8 54.8 2.4 79 3.5s64.5 2.9 89.5 4 55.4 2.4 67.5 3c12.1.5 28.1 1.2 35.5 1.5s16.4.8 20 1.1c7.4.7 7.7-.1.4-1.5-2.7-.6-24-5.1-47.4-10.1s-67.9-14.5-99-21.1-69.1-14.7-84.5-18-29.3-6.2-31-6.5c-2.6-.4-7.3 2.3-34.8 20.8m628.8-19.1c-4.4 1-28 6.1-52.5 11.3s-58.3 12.4-75.2 16c-73.2 15.6-93.3 19.9-108.8 23.2-22 4.6-24.5 5.4-15 4.8 4.1-.2 18.1-.9 31-1.4 12.9-.6 33.4-1.4 45.5-2 12.1-.5 62.7-2.8 112.5-5 123.5-5.5 137.5-6.1 137.8-6.4.7-.7-63.6-42.6-65.3-42.5-1.1.1-5.6 1-10 2m-739.3 48.3-9 15.1 4.2.3c4.4.4 116.9-4.4 127.5-5.4 6.1-.6 3.4-1.2-49.5-11.9-30.7-6.2-57.8-11.8-60.1-12.3l-4.2-1zm880.3-14.2c-2.2.5-29.2 6.1-59.9 12.3-53 10.7-55.6 11.3-49.5 11.9 10.6 1 123.1 5.8 127.6 5.4l4.1-.3-8.5-14.5c-4.7-8-8.8-14.8-9.1-15.1-.4-.3-2.5-.2-4.7.3m-588.6 30.2c-.2.3-18.9 5.9-41.4 12.6-95.6 28.4-191.6 56.9-243 72.1-30.2 8.9-55.3 16.5-55.7 16.8-.4.4 2 6.5 5.4 13.6 3.4 7.2 7.1 16 8.3 19.7l2.1 6.6 4.4-1.9c38.3-16 166.4-71.3 274-118.2 23.4-10.2 44.1-19.2 46-20 1.9-.9 2.8-1.6 1.9-1.6-.9-.1-1.8.1-2 .3m310.1.9c5.4 3.1 291.4 126.9 322.4 139.6 1.8.7 2.3-.1 4.3-6.1 1.3-3.7 5-12.5 8.3-19.5s5.7-13 5.3-13.3c-.5-.4-5.5-2.1-11.3-3.7-5.8-1.7-47.2-14-92-27.3s-85.8-25.5-91-27c-11.8-3.5-143.8-42.6-146.5-43.5-1.3-.4-1.2-.1.5.8M466.6 679c-30.1 20.9-59.7 41.5-65.8 45.7l-11.1 7.8 9.4 8.9c14 13.2 55.8 50.6 56.7 50.6.4 0 33.3-32.6 73.2-72.5s71.8-72.5 71-72.5-17.7-1.4-37.5-3c-19.8-1.7-37.2-3-38.6-3-1.8 0-19.4 11.6-57.3 38m249.9-35c-17.6 1.6-33.3 2.9-35 2.9-2.7.1 3.6 6.7 69.5 72.6 39.9 39.9 73 72.4 73.6 72.3 1.3-.3 54.7-48.3 61.2-55.1l4.4-4.5-50.9-35.3c-27.9-19.4-57.5-39.9-65.6-45.6-17.5-12.2-10.8-11.3-57.2-7.3m-327 2.6c-43.1 1.6-80 2.9-153.5 5.4-99.3 3.5-106.1 3.8-106.8 4.5-.7.6-4.1 62.6-3.6 63.4.3.3 10.6-2.1 71.9-16.9 11-2.7 40.6-9.9 65.8-15.9 25.1-6.1 66.1-16 91-22 24.8-6.1 52.8-12.8 62.2-15.1 9.3-2.2 17.1-4.3 17.4-4.5.5-.6-1-.6-44.4 1.1m456.5-1.3c.3.3 17.4 4.7 38 9.6 20.6 5 56 13.6 78.5 19 22.6 5.5 45.7 11.1 51.5 12.5 5.8 1.3 33.7 8.1 62 15 75.6 18.3 78.1 18.9 78.4 18.5.2-.2-.4-14.7-1.2-32.1l-1.6-31.7-8-.5c-4.5-.3-16.2-.8-26.1-1.1s-30.6-1-46-1.5c-45.5-1.6-140.7-4.9-172.5-6-16.2-.5-34.9-1.2-41.5-1.6-6.6-.3-11.8-.3-11.5-.1m-431 36.1c-63.1 26.8-167.4 71-227.6 96.5l-27.6 11.6-10.4 26c-5.7 14.3-10.3 26.3-10.2 26.6.3.6 340.9-186.9 342.5-188.4.3-.4.4-.7.2-.6-.2 0-30.3 12.7-66.9 28.3m384-27.3c4.1 2.8 341.5 188.5 341.8 188 .1-.3-4.5-12.3-10.2-26.6l-10.4-25.9-47.3-20.1c-26.1-11.1-76.2-32.3-111.4-47.2s-84.9-36-110.5-46.9c-50.6-21.4-54.2-22.9-52-21.3m-197.6 14.2c-1.6 1.9-25.9 28.6-53.9 59.3-28.1 30.7-59.5 65.2-69.8 76.6L459 825l9.3 15.2c13.2 21.6 44.7 72 46 73.6 1.2 1.5-.5 5.9 26.7-69.8 10-27.8 28.5-79.2 41.1-114.4 12.7-35.1 22.8-64 22.6-64.3-.3-.2-1.8 1.1-3.3 3m73.6-3.2c0 .4 5.9 17 13.1 37 30.5 84.9 63.5 176.7 69.7 194.1 3.7 10.3 6.9 18.8 7.2 18.7.5 0 11-16.8 42.8-68.1l13.4-21.8-17.8-19.7c-27-29.8-121.2-133.3-125-137.3-1.9-1.9-3.4-3.2-3.4-2.9m-91.8 110.2C566 826 552 867.9 552 868.4s9.3-8.7 20.8-20.4c14.5-14.9 20.9-22.2 21.5-24.4.4-1.7 3.9-24.7 7.8-51.1 3.8-26.4 8.3-57.2 10-68.4 1.6-11.2 2.9-20.5 2.7-20.6-.2-.2-14.4 41.2-31.6 91.8m81.9-92.1c-.1.4 1.5 11.4 3.4 24.5 2 13.1 6.7 45.2 10.6 71.2l6.9 47.5 20.8 21c11.4 11.6 21 21.2 21.3 21.4.5.2-60.6-180.8-62.5-185.3-.3-.6-.5-.7-.5-.3M344 748.9c-21.6 12.3-71.3 42.2-139 83.6-79.7 48.7-85.8 52.5-86.4 54-.6 1.8-8.6 65.8-8.2 66.2.2.2 246.1-208.9 249.1-211.8 1.9-1.9-.4-.7-15.5 8m580-5c1.9 1.6 57.9 49.3 124.5 105.9 66.5 56.7 121 103 121.1 102.9.3-.3-6.1-54.1-7.3-62.2l-.8-4.9-19.7-12.2C1103.5 849.7 1021 799.3 982 776c-55-33-67-39.6-58-32.1m-541.2 5.6c1.6 4.4 21.3 57.9 43.7 118.9 32 86.8 41.1 110.4 41.7 108.5.4-1.3 4.3-21 8.8-43.6l8.1-41.3-51.7-74.2c-28.4-40.9-52.1-74.8-52.6-75.3-.5-.6.4 2.6 2 7M847.3 817l-52.2 74.9 8.5 43.2c4.6 23.8 8.6 43.4 8.8 43.6.5.5-4.5 13.8 45.6-122.2 23-62.6 41.8-114 41.7-114.2-.2-.1-23.7 33.5-52.4 74.7m-474.9-61.5c.3 1.6 3.3 21.2 6.6 43.5 3.2 22.3 11.8 80.3 19 129s14 94.8 15.1 102.5 2.3 14.8 2.7 15.9c.6 1.4 4.6-4.7 18-27.4 9.5-16 17.2-29.7 17.2-30.4 0-1.6-77.8-234.7-78.6-235.5-.3-.3-.4.7 0 2.4m495.8 115.1c-21.7 64.5-39.2 117.9-39 118.7.5 2.3 34.2 58.7 35 58.7.4 0 .8-1 .8-2.2s3.1-23.3 7-49.2c3.8-25.9 12.8-86.9 20-135.6s13.7-92.7 14.5-97.9 1.3-9.6 1.2-9.7-17.9 52.6-39.5 117.2m-555.7-73.4c-63.9 57.1-142.4 126.8-168 149.3-13.7 12.1-25.1 22.4-25.3 23-.7 2.6 13.1 52.4 16 57.9 1.2 2.3-1.2 4.9 22.3-23.5C180.3 976.4 231.3 913 291 838c28.2-35.5 52.8-66.4 54.7-68.8 1.9-2.3 3.3-4.2 3.1-4.2s-16.6 14.5-36.3 32.2m641.6-3.2c81.4 102.5 157.1 196.6 176.3 219.4 5.6 6.5 10.8 12.8 11.7 13.9 1.7 2 1.7 2 3.2-.9 2.9-5.6 16.1-54.2 15.5-56.9-.2-.7-5.9-6.2-12.8-12.1-17.7-15.3-91.7-81-157.4-139.9-30.7-27.5-56.8-50.7-57.9-51.5s8.5 11.8 21.4 28m-588-9c-.3.8-39.8 315.5-39.6 315.7 0 .1 16-8.1 35.3-18.4 31-16.4 35.2-18.9 35.2-21 0-2-29.2-265.8-30.3-273.8-.2-1.7-.5-2.8-.6-2.5m532 139.5c-8.5 76.2-15.2 138.7-15 139 .7.7 70.3 37.4 70.5 37.2.4-.5-39.1-314.7-39.6-314.7-.3 0-7.4 62.3-15.9 138.5m-570.8-83.2c-7.2 20.5-33.2 94.1-57.8 163.5-24.6 69.5-44.5 126.5-44.3 126.7.2.1 14.2 8.6 31.1 18.9 19.2 11.6 30.9 18.1 31.1 17.3.3-.6 4.7-30.7 10-66.7 10.8-74.2 33.7-230.2 39.6-270 2.1-14.5 3.8-26.5 3.7-26.7-.2-.1-6.2 16.5-13.4 37m612.1-34.8c.8 4.3 2.1 12.6 16.6 112 7.2 48.9 16.7 113.5 21.1 143.5s9.5 65.3 11.5 78.5c1.9 13.2 3.7 25 3.9 26.2.5 2.1 2.9.8 31.2-16.2 16.9-10.2 30.9-18.7 31.1-19 .3-.2-8.6-26.2-19.8-57.7-80.7-228.5-95.2-269.4-95.7-269.8-.3-.3-.3.8.1 2.5m-764.9 227.7c-47.8 52.8-87.1 96.3-87.3 96.7-.4 1.2 85.9 46.4 86.8 45.5.8-.9 88.1-237.6 87.7-237.9-.1-.1-39.3 43-87.2 95.7m844-94.7c.4 1.1 18.7 50.8 40.6 110.5 22 59.7 41.4 112.3 43.1 117s3.5 8.9 3.9 9.4c.9 1 87.1-44.3 86.7-45.5-.2-.4-38.5-42.9-85.3-94.5-46.7-51.5-86-94.8-87.3-96.3-1.9-2.1-2.2-2.2-1.7-.6"/>
    </g>
</svg>

